<?xml version="1.0" standalone="no"?>
<!DOCTYPE svg PUBLIC "-//W3C//DTD SVG 20010904//EN"
 "http://www.w3.org/TR/2001/REC-SVG-20010904/DTD/svg10.dtd">
<svg version="1.0" xmlns="http://www.w3.org/2000/svg"
 width="980.000000pt" height="980.000000pt" viewBox="0 0 980.000000 980.000000"
 preserveAspectRatio="xMidYMid meet">

<g transform="translate(0.000000,980.000000) scale(0.100000,-0.100000)"
fill="#000000" stroke="none">
<path d="M4600 7858 c-578 -60 -1111 -281 -1580 -656 -95 -77 -380 -355 -380
-373 0 -5 884 -9 2270 -9 2103 0 2270 1 2262 16 -16 29 -243 253 -332 328
-463 391 -1004 624 -1605 691 -143 16 -496 18 -635 3z"/>
<path d="M2360 6515 c-44 -53 -190 -326 -245 -460 -221 -531 -288 -1100 -195
-1658 65 -391 199 -747 407 -1087 l40 -65 656 -3 657 -2 0 707 0 708 -115 115
-115 115 115 115 115 115 0 708 0 707 -654 0 c-562 0 -655 -2 -666 -15z m920
-903 c0 -285 -2 -521 -4 -523 -2 -2 -227 -3 -498 -1 l-494 2 8 73 c37 318 116
589 258 880 l42 87 344 0 344 0 0 -518z m-2 -1444 l-3 -523 -340 0 -340 0 -27
50 c-77 140 -166 378 -213 563 -28 113 -65 335 -65 395 l0 37 495 0 495 0 -2
-522z"/>
<path d="M3970 5610 l0 -920 735 0 735 0 0 -525 0 -525 -532 2 -533 3 -3 313
-2 312 -200 0 -200 0 0 -515 0 -515 935 0 935 0 0 925 0 925 -735 0 -735 0 0
520 0 520 535 0 535 0 1 -287 c1 -159 2 -300 3 -315 l1 -28 197 0 198 0 0 515
0 515 -935 0 -935 0 0 -920z"/>
<path d="M6140 4885 l0 -1645 654 0 653 0 27 40 c14 22 26 42 26 45 0 2 18 34
40 70 175 287 321 711 370 1075 6 47 13 98 16 115 4 27 -8 42 -131 165 l-136
136 135 134 135 133 -5 46 c-53 453 -190 861 -415 1236 l-54 90 -658 3 -657 2
0 -1645z m1148 1117 c125 -265 210 -565 238 -844 l6 -68 -496 0 -496 0 0 518
c0 285 2 521 4 523 2 2 157 3 344 1 l339 -3 61 -127z m239 -1327 c8 -21 -12
-174 -43 -320 -43 -213 -118 -429 -213 -618 l-46 -92 -342 -3 -343 -2 0 525 0
525 490 0 c433 0 491 -2 497 -15z"/>
<path d="M2660 2923 c12 -16 50 -57 84 -93 365 -377 797 -647 1277 -796 473
-146 993 -172 1479 -74 563 113 1077 385 1493 789 49 47 111 112 139 144 l50
57 -2272 0 -2271 0 21 -27z"/>
</g>
</svg>
